<svg version="1.1" xmlns="http://www.w3.org/2000/svg" xmlns:xlink="http://www.w3.org/1999/xlink" x="0px" y="0px"
	 viewBox="0 0 100 100" style="enable-background:new 0 0 100 100;" xml:space="preserve">
<g id="Vrstva_21">
	<g>
		<g>
			<path d="M58.245,60.219c-5.634,0-10.218-4.584-10.218-10.219c0-5.635,4.583-10.219,10.218-10.219
				c5.635,0,10.22,4.584,10.22,10.219C68.465,55.635,63.88,60.219,58.245,60.219z M58.245,42.781c-3.98,0-7.218,3.238-7.218,7.219
				c0,3.98,3.238,7.219,7.218,7.219c3.981,0,7.22-3.238,7.22-7.219C65.465,46.02,62.226,42.781,58.245,42.781z"/>
		</g>
		<g>
			<path d="M49.786,55.608h-37c-0.829,0-1.5-0.672-1.5-1.5c0-0.829,0.671-1.5,1.5-1.5h37c0.829,0,1.5,0.671,1.5,1.5
				C51.286,54.936,50.614,55.608,49.786,55.608z"/>
		</g>
		<g>
			<path d="M49.786,46.608h-37c-0.829,0-1.5-0.671-1.5-1.5c0-0.829,0.671-1.5,1.5-1.5h37c0.829,0,1.5,0.671,1.5,1.5
				C51.286,45.936,50.614,46.608,49.786,46.608z"/>
		</g>
		<g>
			<path d="M57.444,41.739c-0.254,0-0.512-0.065-0.748-0.202c-0.717-0.414-0.963-1.332-0.549-2.049L74.637,7.461
				c0.415-0.717,1.332-0.964,2.049-0.549c0.717,0.414,0.963,1.331,0.549,2.049L58.744,40.989
				C58.466,41.47,57.962,41.739,57.444,41.739z"/>
		</g>
		<g>
			<path d="M66.208,47.221c-0.254,0-0.512-0.065-0.749-0.202c-0.717-0.414-0.963-1.332-0.549-2.049l18.491-32.027
				c0.415-0.717,1.331-0.963,2.049-0.549c0.717,0.414,0.963,1.332,0.549,2.049L67.509,46.471
				C67.231,46.952,66.727,47.221,66.208,47.221z"/>
		</g>
		<g>
			<path d="M84.702,87.807c-0.519,0-1.022-0.269-1.3-0.75L64.911,55.029c-0.415-0.718-0.169-1.635,0.549-2.049
				c0.719-0.414,1.635-0.168,2.049,0.549L86,85.557c0.414,0.718,0.168,1.635-0.549,2.049C85.215,87.742,84.957,87.807,84.702,87.807
				z"/>
		</g>
		<g>
			<path d="M75.939,93.289c-0.518,0-1.022-0.269-1.3-0.75L56.147,60.511c-0.415-0.718-0.168-1.635,0.549-2.049
				c0.718-0.415,1.635-0.169,2.049,0.549l18.491,32.028c0.414,0.718,0.169,1.635-0.549,2.049
				C76.451,93.225,76.193,93.289,75.939,93.289z"/>
		</g>
		<g>
			<path d="M75.939,93.289c-0.5,0-0.988-0.249-1.273-0.704c-0.439-0.703-0.227-1.628,0.476-2.067l8.764-5.482
				c0.702-0.44,1.627-0.228,2.067,0.476c0.44,0.703,0.227,1.628-0.476,2.067l-8.764,5.482C76.486,93.216,76.21,93.289,75.939,93.289
				z"/>
		</g>
		<g>
			<path d="M84.699,15.194c-0.271,0-0.547-0.074-0.794-0.229l-8.765-5.482c-0.703-0.439-0.916-1.365-0.476-2.067
				C75.103,6.714,76.03,6.5,76.732,6.94l8.765,5.482c0.703,0.439,0.916,1.365,0.476,2.067
				C85.688,14.944,85.199,15.194,84.699,15.194z"/>
		</g>
		<g>
			<path d="M12.286,55.108c-0.829,0-1.5-0.672-1.5-1.5v-8c0-0.829,0.671-1.5,1.5-1.5c0.829,0,1.5,0.671,1.5,1.5v8
				C13.786,54.436,13.114,55.108,12.286,55.108z"/>
		</g>
		<g>
			<path d="M83.355,66.946c-0.268,0-0.539-0.071-0.784-0.223c-0.706-0.434-0.926-1.357-0.492-2.063
				c2.705-4.4,4.136-9.469,4.135-14.659c-0.001-5.276-1.474-10.415-4.261-14.863c-0.44-0.702-0.228-1.627,0.475-2.067
				c0.702-0.44,1.628-0.227,2.067,0.475C87.582,38.47,89.214,44.16,89.214,50c0,5.745-1.583,11.358-4.58,16.231
				C84.351,66.692,83.859,66.946,83.355,66.946z"/>
		</g>
		<g>
			<path d="M32.172,37.546c-0.24,0-0.483-0.058-0.708-0.179c-0.73-0.392-1.003-1.302-0.611-2.031
				C36.274,25.247,46.751,18.98,58.194,18.98c0.829,0,1.5,0.671,1.5,1.5s-0.671,1.5-1.5,1.5c-10.336,0-19.801,5.662-24.699,14.775
				C33.223,37.259,32.706,37.546,32.172,37.546z"/>
		</g>
		<g>
			<path d="M58.194,81.022c-11.864,0-22.848-6.915-27.982-17.618c-0.358-0.746-0.043-1.643,0.704-2.001
				c0.747-0.359,1.643-0.044,2.002,0.704c4.638,9.668,14.561,15.915,25.277,15.915c0.829,0,1.5,0.672,1.5,1.5
				C59.694,80.35,59.022,81.022,58.194,81.022z"/>
		</g>
	</g>
</g>
<script  type="text/javascript">
    <![CDATA[
         var c=window.location.search.split('color=')[1]; c=parseInt(c,16); if(!isNaN(c)){c=c.toString(16);var p=document.getElementsByTagName('path');for(var i=0,l=p.length;i<l;i++){var s=p[i].style;s.fill='#'+c;} var p2=document.getElementsByTagName('polygon');for(var i=0,l=p2.length;i<l;i++){var s=p2[i].style;s.fill='#'+c;} var p3=document.getElementsByTagName('circle');for(var i=0,l=p3.length;i<l;i++){var s=p3[i].style;s.fill='#'+c;} }
        ]]>
</script>
</svg>
